<svg width="512" height="512" viewBox="0 0 512 512" fill="none" xmlns="http://www.w3.org/2000/svg">
<rect width="512" height="512" fill="white"/>
<path d="M235.481 193.847C242.001 202.081 248.263 210.546 254.125 219.077C235.729 246.818 221.467 275.298 216.217 298.962C215.71 301.249 215.284 303.502 214.947 305.713C193.338 286.646 171.057 265.448 152.481 242.63C126.822 211.11 108.5 176.822 108.5 141.095C108.5 123.022 113.153 113.926 119.768 110.413C126.525 106.825 136.642 108.3 149.416 114.75C174.729 127.533 207.318 158.281 235.481 193.847ZM223.929 336.763C220.441 331.29 218.867 324.252 219.036 315.935C224.754 320.897 230.378 325.695 235.823 330.317C238.015 332.178 240.177 334.009 242.304 335.811C246.096 339.023 249.778 342.142 253.32 345.164C251.426 346.825 249.578 348.457 247.782 350.059C235.808 348.367 228.25 343.543 223.929 336.763ZM241.485 362.579C243.98 360.232 246.634 357.803 249.428 355.295C252.104 355.579 254.938 355.722 257.932 355.722C260.462 355.722 262.878 355.62 265.18 355.417C267.988 357.888 270.66 360.282 273.176 362.598C283.538 372.132 290.974 380.083 294.407 386.379C296.117 389.516 296.647 391.912 296.372 393.714C296.119 395.374 295.11 396.982 292.602 398.467C290.022 399.995 286.021 401.277 280.227 402.161C274.467 403.039 267.107 403.5 257.932 403.5C248.757 403.5 241.381 403.039 235.591 402.161C229.769 401.277 225.719 399.994 223.078 398.457C220.503 396.958 219.427 395.326 219.123 393.645C218.796 391.841 219.259 389.455 220.877 386.333C224.132 380.053 231.35 372.113 241.485 362.579ZM291.757 336.78C287.377 343.776 279.513 348.693 266.839 350.221C264.935 348.555 262.975 346.858 260.964 345.128C264.656 341.918 268.505 338.6 272.476 335.176C274.333 333.575 276.217 331.95 278.125 330.303C284.018 325.213 290.129 319.911 296.343 314.409C296.853 323.406 295.392 330.976 291.757 336.78ZM360.112 242.643C342.248 264.898 320.921 285.612 300.148 304.311C299.831 302.543 299.46 300.75 299.036 298.935C293.513 275.272 278.911 246.792 260.158 219.051C265.91 210.523 272.058 202.061 278.464 193.831C306.145 158.265 338.251 127.522 363.201 114.744C375.794 108.294 385.747 106.833 392.385 110.406C398.901 113.913 403.5 123.01 403.5 141.095C403.5 176.833 385.41 211.126 360.112 242.643ZM221.099 300.045C226.067 277.646 239.531 250.423 257.162 223.555C275.143 250.431 288.937 277.664 294.167 300.072C294.828 302.903 295.348 305.639 295.723 308.273C288.614 314.604 281.604 320.692 274.857 326.519C272.957 328.16 271.077 329.78 269.222 331.38C265.053 334.974 261.006 338.463 257.126 341.84C253.393 338.651 249.51 335.362 245.516 331.979C243.393 330.181 241.239 328.356 239.059 326.505C232.708 321.115 226.133 315.5 219.463 309.677C219.809 306.606 220.356 303.391 221.099 300.045Z" fill="#003BA0" stroke="white" stroke-width="5"/>
</svg>
